<svg id="logo" xmlns="http://www.w3.org/2000/svg" viewBox="0 0 265.71 68.55"><defs><style>.cls-1{fill:#fff;}.cls-2{fill:#fff;}</style></defs><title>lisa_logo</title><path class="cls-1" d="M0,0H4.51V36H0Z"/><path class="cls-1" d="M18.14,6.05H13.06V1h5.08Zm-4.8,5.47h4.52V36H13.34Z"/><path class="cls-1" d="M24.29,31.2a12.06,12.06,0,0,0,5.61,1.73c2.07,0,4.61-.86,4.61-3.5,0-4.47-10.61-4.08-10.61-10.95,0-5.09,3.8-7.54,8.64-7.54a19.1,19.1,0,0,1,5.62,1l-.38,3.94A13.3,13.3,0,0,0,33,14.59c-2.3,0-4.32,1-4.32,3,0,5,10.61,3.55,10.61,11.38,0,5.23-4.17,7.63-8.54,7.63a14,14,0,0,1-6.72-1.35Z"/><path class="cls-1" d="M45.94,13.25A15.5,15.5,0,0,1,54,10.94c7,0,9.84,3.46,9.84,10.13V31.2A40.16,40.16,0,0,0,64,36H59.81V32.83h-.1a9.06,9.06,0,0,1-7.58,3.75c-5.28,0-9-2.31-9-7.63,0-6.15,6.72-8.07,11.38-8.07,1.77,0,3,0,4.8.1,0-4.23-1.54-6.39-6-6.39a11.48,11.48,0,0,0-7.1,2.5ZM59.33,24.34c-1,0-1.92-.1-2.88-.1C54,24.24,48,24.62,48,29c0,2.59,2.5,4,4.56,4,4.47,0,6.82-2.78,6.82-6.43Z"/><path class="cls-1" d="M67.63,36.1h14v1.4h-14Z"/><path class="cls-1" d="M101,15.65a13.11,13.11,0,0,0-4.9-1.06c-5,0-7.87,4.52-7.87,9.17,0,4.37,2.35,9.17,8.16,9.17a9.49,9.49,0,0,0,4.85-1.39l.33,4a13.81,13.81,0,0,1-5.66,1c-7.4,0-12.48-5.81-12.48-12.82,0-7.44,5-12.82,12.48-12.82a17.13,17.13,0,0,1,5.47,1Z"/><path class="cls-1" d="M107.94,13.25A15.5,15.5,0,0,1,116,10.94c7,0,9.84,3.46,9.84,10.13V31.2A40.16,40.16,0,0,0,126,36h-4.22V32.83h-.1a9.06,9.06,0,0,1-7.58,3.75c-5.28,0-9-2.31-9-7.63,0-6.15,6.72-8.07,11.38-8.07,1.77,0,3,0,4.8.1,0-4.23-1.54-6.39-6-6.39a11.48,11.48,0,0,0-7.1,2.5Zm13.39,11.09c-1,0-1.92-.1-2.88-.1-2.45,0-8.5.38-8.5,4.71,0,2.59,2.5,4,4.56,4,4.47,0,6.82-2.78,6.82-6.43Z"/><path class="cls-1" d="M144.56,15.17h-6.48V28.56c0,2.83,1.73,4.37,3.79,4.37a5.59,5.59,0,0,0,3.07-.86v3.84a14.4,14.4,0,0,1-3.84.67c-4.65,0-7.53-2.21-7.53-7.11V15.17h-5.52V11.52h5.52V5.86l4.51-1.44v7.1h6.48Z"/><path class="cls-1" d="M151.37,13.25a15.57,15.57,0,0,1,8.07-2.31c7,0,9.84,3.46,9.84,10.13V31.2a40.16,40.16,0,0,0,.19,4.8h-4.22V32.83h-.1a9.06,9.06,0,0,1-7.58,3.75c-5.28,0-9-2.31-9-7.63,0-6.15,6.72-8.07,11.38-8.07,1.77,0,3,0,4.8.1,0-4.23-1.54-6.39-6.05-6.39a11.48,11.48,0,0,0-7.1,2.5Zm13.4,11.09c-1,0-1.92-.1-2.88-.1-2.45,0-8.5.38-8.5,4.71,0,2.59,2.5,4,4.56,4,4.47,0,6.82-2.78,6.82-6.43Z"/><path class="cls-1" d="M176.53,0H181V36h-4.51Z"/><path class="cls-1" d="M189.49,13.25a15.5,15.5,0,0,1,8.06-2.31c7,0,9.84,3.46,9.84,10.13V31.2a40.16,40.16,0,0,0,.19,4.8h-4.22V32.83h-.1a9.06,9.06,0,0,1-7.58,3.75c-5.28,0-9-2.31-9-7.63,0-6.15,6.72-8.07,11.38-8.07,1.78,0,3,0,4.8.1,0-4.23-1.54-6.39-6-6.39a11.48,11.48,0,0,0-7.1,2.5Zm13.39,11.09c-1,0-1.92-.1-2.88-.1-2.45,0-8.5.38-8.5,4.71,0,2.59,2.5,4,4.56,4,4.47,0,6.82-2.78,6.82-6.43Z"/><path class="cls-1" d="M214.06,11.52h4.37v3.89h.1c1.34-2.79,4.61-4.47,8-4.47,6.34,0,9.17,3.94,9.17,10.52V36H231.2V23.33c0-5.71-1.25-8.5-5.18-8.74-5.14,0-7.44,4.13-7.44,10.08V36h-4.52Z"/><path class="cls-1" d="M253.28,10.94c7.44,0,12.43,5.38,12.43,12.82,0,7-5.09,12.82-12.43,12.82S240.8,30.77,240.8,23.76C240.8,16.32,245.79,10.94,253.28,10.94Zm0,22c5.28,0,7.63-4.8,7.63-9.17,0-4.65-2.83-9.17-7.63-9.17s-7.68,4.52-7.68,9.17C245.6,28.13,248,32.93,253.28,32.93Z"/><path class="cls-2" d="M91.16,48.64h1.49L86.82,64.16H85.34Z"/><path class="cls-2" d="M98.58,48.9l-.15,3.29L101.55,51l.41,1.25-3.16.9,2.08,2.56-1.07.82L98,53.69l-1.81,2.82-1.05-.82,2-2.56L94,52.23,94.32,51l3.16,1.21-.15-3.29Z"/><path class="cls-2" d="M114.32,63.9H113V62.16h0a3.51,3.51,0,0,1-3.42,2c-3,0-4.51-2.49-4.51-5.74s1.29-5.74,4.51-5.74a3.69,3.69,0,0,1,3.42,2.11h0v-7h1.36Zm-4.6-.9c2.41,0,3.24-2.58,3.24-4.58s-.83-4.58-3.24-4.58c-2.58,0-3.25,2.45-3.25,4.58S107.14,63,109.72,63Z"/><path class="cls-2" d="M124.94,63.56a8.93,8.93,0,0,1-3.18.6c-3.64,0-5-2.45-5-5.74s1.85-5.74,4.62-5.74c3.1,0,4.37,2.49,4.37,5.44v.69h-7.51c0,2.32,1.25,4.19,3.62,4.19a7.07,7.07,0,0,0,3.07-.82Zm-.67-5.91c0-1.92-.77-3.81-2.79-3.81s-3.23,2-3.23,3.81Z"/><path class="cls-2" d="M127.5,62.31a6.42,6.42,0,0,0,2.86.69c1.29,0,2.43-.71,2.43-2,0-2.6-5.27-2.19-5.27-5.37,0-2.17,1.76-3,3.57-3a8.8,8.8,0,0,1,2.71.49l-.13,1.19a6.28,6.28,0,0,0-2.43-.52c-1.4,0-2.37.43-2.37,1.83,0,2,5.4,1.78,5.4,5.37,0,2.33-2.17,3.12-3.83,3.12a8.2,8.2,0,0,1-3.07-.52Z"/><path class="cls-2" d="M138.05,50H136.7v-1.8h1.35Zm-1.35,2.93h1.35v11H136.7Z"/><path class="cls-2" d="M150.16,63c0,3-1.38,5.55-5.14,5.55a11.44,11.44,0,0,1-3.31-.58l.11-1.36a7.42,7.42,0,0,0,3.22.77c3.48,0,3.79-2.53,3.79-5.63h-.05a3.39,3.39,0,0,1-3.33,2.15c-3.5,0-4.62-3-4.62-5.48,0-3.33,1.29-5.74,4.51-5.74a3.62,3.62,0,0,1,3.42,1.5h0V52.94h1.36Zm-4.69-.26c2.45,0,3.33-2.32,3.33-4.32,0-2.64-.77-4.58-3.24-4.58s-3.25,2.45-3.25,4.58S143.17,62.74,145.47,62.74Z"/><path class="cls-2" d="M153.43,55.52a25.1,25.1,0,0,0-.09-2.58h1.31v2h0a3.46,3.46,0,0,1,3.54-2.21c2.71,0,3.74,1.81,3.74,4.21v7h-1.35V57.24c0-2.07-.73-3.4-2.6-3.4-2.47,0-3.25,2.17-3.25,4V63.9h-1.35Z"/><path class="cls-2" d="M164.67,57.71h4.71V53h1.48v4.71h4.71v1.48h-4.71V63.9h-1.48V59.19h-4.71Z"/><path class="cls-2" d="M187.83,63.9h-1.36V62.16h0a3.51,3.51,0,0,1-3.42,2c-3,0-4.51-2.49-4.51-5.74s1.29-5.74,4.51-5.74a3.69,3.69,0,0,1,3.42,2.11h0v-7h1.36Zm-4.6-.9c2.4,0,3.24-2.58,3.24-4.58s-.84-4.58-3.24-4.58c-2.58,0-3.25,2.45-3.25,4.58S180.65,63,183.23,63Z"/><path class="cls-2" d="M198.45,63.56a8.93,8.93,0,0,1-3.18.6c-3.64,0-5-2.45-5-5.74s1.85-5.74,4.62-5.74c3.1,0,4.36,2.49,4.36,5.44v.69h-7.5c0,2.32,1.25,4.19,3.61,4.19a7.07,7.07,0,0,0,3.08-.82Zm-.67-5.91c0-1.92-.77-3.81-2.79-3.81s-3.23,2-3.23,3.81Z"/><path class="cls-2" d="M205.65,63.9h-1.59l-3.72-11h1.48l3,9.48h.05l3.18-9.48h1.42Z"/><path class="cls-2" d="M218.74,63.56a8.88,8.88,0,0,1-3.18.6c-3.63,0-5-2.45-5-5.74s1.85-5.74,4.63-5.74c3.09,0,4.36,2.49,4.36,5.44v.69h-7.5c0,2.32,1.24,4.19,3.61,4.19a7,7,0,0,0,3.07-.82Zm-.66-5.91c0-1.92-.78-3.81-2.8-3.81s-3.22,2-3.22,3.81Z"/><path class="cls-2" d="M222.14,47.78h1.36V63.9h-1.36Z"/><path class="cls-2" d="M231.19,52.68c3.55,0,5.12,2.75,5.12,5.74s-1.57,5.74-5.12,5.74-5.11-2.75-5.11-5.74S227.64,52.68,231.19,52.68Zm0,10.32c2.37,0,3.64-2,3.64-4.58s-1.27-4.58-3.64-4.58-3.63,2-3.63,4.58S228.83,63,231.19,63Z"/><path class="cls-2" d="M238.74,52.94h1.35l-.08,2h0a3.77,3.77,0,0,1,3.5-2.26c3.23,0,4.52,2.41,4.52,5.74s-1.51,5.74-4.52,5.74A3.38,3.38,0,0,1,240.14,62h0v6.39h-1.35Zm4.6.9c-2.41,0-3.25,2.58-3.25,4.58s.84,4.58,3.25,4.58c2.58,0,3.25-2.45,3.25-4.58S245.92,53.84,243.34,53.84Z"/><path class="cls-2" d="M255.72,48.9l-.15,3.29L258.69,51l.41,1.25-3.16.9L258,55.69l-1.07.82-1.85-2.82-1.81,2.82-1-.82,2-2.56-3.16-.9.37-1.25,3.16,1.21-.15-3.29Z"/><path class="cls-2" d="M263.87,48.64h1.49l-5.83,15.52h-1.48Z"/></svg>
